<?xml version="1.0" encoding="utf-8"?>
<!-- Generator: Adobe Illustrator 22.1.0, SVG Export Plug-In . SVG Version: 6.00 Build 0)  -->
<svg version="1.1" id="Layer_1" xmlns="http://www.w3.org/2000/svg" xmlns:xlink="http://www.w3.org/1999/xlink" x="0px" y="0px"
	 width="309.383px" height="77.05px" viewBox="0 0 309.383 77.05" enable-background="new 0 0 309.383 77.05" xml:space="preserve">
<g>
	<circle fill="#FFFFFF" cx="19.775" cy="17.348" r="6.188"/>
	<g>
		<path fill-rule="evenodd" clip-rule="evenodd" fill="#00A651" d="M19.082,13.318c2.701,0,4.89,2.189,4.89,4.89
			c0,2.701-2.19,4.89-4.89,4.89c-2.701,0-4.89-2.189-4.89-4.89C14.192,15.507,16.381,13.318,19.082,13.318 M24.898,4.819
			c11.394,0,20.63,9.236,20.63,20.63c0,11.394-9.236,20.63-20.63,20.63c-11.393,0-20.63-9.236-20.63-20.63
			C4.268,14.056,13.505,4.819,24.898,4.819z"/>
		<path fill="#575655" d="M140.804,25.046c2.747-1.528,4.094-3.831,4.094-6.973c0-5.519-3.992-9.017-10.203-9.017h-13.246v32.803h13.799
			c6.21,0,10.103-3.645,10.103-9.396c0-2.301-0.601-4.151-2.045-5.668C142.622,26.101,142.113,25.727,140.804,25.046
			 M127.876,22.324V14.76h6.314c2.633,0,4.261,1.427,4.261,3.782c0,2.354-1.628,3.782-4.261,3.782H127.876z M116.204,14.76V9.056
			H92.514v5.704h8.622v27.099h6.452V14.76H116.204z M87.248,41.859V9.056h-6.447V22.46H69.635V9.056h-6.446v32.803h6.446V28.128
			h11.167v13.731H87.248z M127.876,36.139v-8.064h6.721c2.643,0,4.319,1.517,4.319,4.003c0,2.502-1.676,4.061-4.319,4.061H127.876z"
			/>
		<path fill="#575655" d="M195.253,41.86V9.055h-24.081V41.86l6.445,0V14.77h11.185v27.089L195.253,41.86z M227.836,41.867V9.055h-20.313
			l-0.504,19.172c-0.174,6.277-2.464,7.926-5.436,7.926h-1.063v5.714h2.833c6.4,0,9.899-4.137,10.152-13.367l0.369-13.73h7.502
			v27.097H227.836z M265.568,26.204L265.568,26.204c0,4.56-0.187,6.899-1.569,8.43c-1.034,1.143-2.545,1.797-4.173,1.797
			c-1.625,0-3.106-0.655-4.138-1.797c-1.232-1.39-1.619-3.316-1.619-8.103v-2.04c0-4.146,0.338-6.766,1.619-8.241
			c1-1.153,2.47-1.759,4.138-1.759c1.665,0,3.171,0.606,4.173,1.759c1.256,1.416,1.569,3.768,1.569,8.016V26.204z M259.826,8.776
			c-3.412,0-6.515,1.121-8.906,3.601c-2.438,2.549-3.068,5.258-3.248,10.045h-5.006V9.055h-6.439V41.86h6.439V28.136h4.959
			c0.095,4.336,0.574,7.641,3.295,10.42c2.334,2.381,5.333,3.6,8.954,3.6c3.553,0,6.589-1.208,8.902-3.6
			c3.289-3.401,3.247-7.383,3.247-13.102c0-0.239,0.002-2.601,0-2.904c0-4.507-0.783-7.684-3.247-10.173
			C266.41,9.977,263.407,8.776,259.826,8.776z M301,31.661l-0.026,1.484c-0.405,6.721-6.01,9.296-11.646,9.033
			c-3.213-0.069-6.132-1.223-8.42-3.538c-1.637-1.651-2.505-3.332-2.913-6.076h0.014c-0.398-2.141-0.401-4.554-0.401-7.25V24.01
			c0-6.466,0.698-9.078,3.22-11.623c2.288-2.316,5.207-3.469,8.42-3.538c5.636-0.263,11.241,2.312,11.646,9.033l-0.002,1.113h-5.752
			c-0.523-4.602-6.746-5.969-9.57-2.819c-1.599,1.759-1.599,5.135-1.599,8.23v1.733c0,3.237,0.136,5.136,0.549,6.45l-0.004,0
			c0.237,0.89,0.594,1.668,1.134,2.262c2.746,3.063,9.574,1.706,9.514-3.19H301z"/>
		<rect fill="#575655" x="154.739" y="28.732" fill-rule="evenodd" clip-rule="evenodd" width="4.962" height="18.699"/>
		<path fill="#575655" d="M120.992,69.705c0-0.608-0.545-1.122-1.137-1.122c-0.623,0-1.137,0.514-1.137,1.137c0,0.608,0.514,1.122,1.137,1.122
			C120.478,70.843,120.992,70.329,120.992,69.705 M65.485,69.705c0-0.608-0.545-1.122-1.137-1.122c-0.623,0-1.137,0.514-1.137,1.137
			c0,0.608,0.514,1.122,1.137,1.122S65.485,70.329,65.485,69.705z M300.083,70.796v-1.511h-5.422v-3.334h4.611v-1.496h-4.611v-3.241
			h5.422v-1.511h-7.104v11.092H300.083z M289.113,67.587c0,1.044-0.701,1.698-1.823,1.698h-2.633v-3.381h2.633
			C288.411,65.904,289.113,66.559,289.113,67.587z M288.957,62.804c0,0.997-0.686,1.589-1.807,1.589h-2.493v-3.178h2.493
			C288.271,61.215,288.957,61.807,288.957,62.804z M290.811,67.68c0-1.262-0.577-2.056-1.667-2.571
			c0.981-0.483,1.496-1.293,1.496-2.415c0-1.807-1.324-2.991-3.349-2.991h-4.316v11.092h4.487
			C289.533,70.796,290.811,69.596,290.811,67.68z M281.383,61.215v-1.511h-7.789v1.511h3.053v9.581h1.683v-9.581H281.383z
			 M272.641,69.581l-1.122-1.137c-0.654,0.639-1.137,0.935-1.963,0.935c-0.67,0-1.231-0.218-1.651-0.67
			c-0.53-0.561-0.654-1.215-0.654-3.116v-0.499c0-1.433,0.016-2.617,0.654-3.303c0.42-0.436,0.997-0.67,1.651-0.67
			c0.826,0,1.309,0.296,1.963,0.935l1.122-1.137c-0.561-0.514-0.919-0.779-1.434-0.997c-0.483-0.202-1.013-0.312-1.651-0.312
			c-1.153,0-2.166,0.421-2.929,1.184c-0.919,0.935-1.075,1.963-1.075,4.004c-0.015,0.062-0.015,0.374,0,0.452
			c0,1.823-0.031,3.35,1.075,4.456c0.763,0.779,1.776,1.184,2.944,1.184c0.623,0,1.153-0.109,1.636-0.311
			C271.721,70.36,272.08,70.095,272.641,69.581z M263.384,70.796V59.704h-1.542l-4.954,8.039v-8.039h-1.683v11.092h1.527
			l4.969-8.054v8.054H263.384z M261.811,56.884h-1.137c-0.125,0.608-0.514,1.013-1.356,1.013c-0.826,0-1.246-0.405-1.386-1.013
			h-1.137c0.203,1.402,1.028,2.181,2.508,2.181C260.783,59.065,261.624,58.286,261.811,56.884z M251.339,65.141
			c0,1.885,0,2.866-0.654,3.552c-0.421,0.452-0.997,0.686-1.651,0.686c-0.639,0-1.199-0.233-1.651-0.686
			c-0.717-0.717-0.639-2.103-0.639-3.521c0-1.527-0.016-2.68,0.639-3.365c0.436-0.452,1.028-0.685,1.651-0.685
			c0.639,0,1.215,0.234,1.651,0.685C251.308,62.461,251.339,63.458,251.339,65.141z M253.038,65.25v-0.779
			c0-1.574-0.218-2.804-1.075-3.677c-0.763-0.763-1.776-1.184-2.929-1.184c-1.137,0-2.15,0.421-2.913,1.184
			c-0.935,0.935-1.075,2.119-1.075,3.941v0.592c0,1.714-0.016,3.272,1.075,4.378c0.763,0.779,1.76,1.184,2.913,1.184
			c1.168,0,2.165-0.405,2.929-1.184C253.053,68.584,253.038,67.15,253.038,65.25z M242.052,63.069c0,1.137-0.763,1.854-1.979,1.854
			h-2.415v-3.708h2.415C241.289,61.215,242.052,61.916,242.052,63.069z M243.734,63.069c0-1.994-1.449-3.365-3.552-3.365h-4.206
			v11.092h1.683v-4.362h2.524C242.286,66.434,243.734,65.063,243.734,63.069z M234.385,61.215v-1.511h-7.79v1.511h3.053v9.581h1.683
			v-9.581H234.385z M225.642,69.581l-1.122-1.137c-0.654,0.639-1.137,0.935-1.963,0.935c-0.67,0-1.231-0.218-1.651-0.67
			c-0.53-0.561-0.654-1.215-0.654-3.116v-0.499c0-1.433,0.015-2.617,0.654-3.303c0.421-0.436,0.997-0.67,1.651-0.67
			c0.826,0,1.309,0.296,1.963,0.935l1.122-1.137c-0.561-0.514-0.919-0.779-1.433-0.997c-0.483-0.202-1.012-0.312-1.651-0.312
			c-1.153,0-2.165,0.421-2.929,1.184c-0.919,0.935-1.075,1.963-1.075,4.004c-0.015,0.062-0.015,0.374,0,0.452
			c0,1.823-0.031,3.35,1.075,4.456c0.763,0.779,1.776,1.184,2.944,1.184c0.623,0,1.153-0.109,1.636-0.311
			C224.723,70.36,225.082,70.095,225.642,69.581z M217.741,59.704h-1.776l-2.383,5.935l-2.648-5.935h-1.776l3.599,7.789
			l-0.389,0.904c-0.249,0.592-0.623,0.888-1.293,0.888h-0.795v1.511h1.153c1.2,0,1.901-0.795,2.337-1.807L217.741,59.704z
			 M204.201,70.796V59.704h-1.683l-3.194,6.901l-3.241-6.901h-1.667v11.092h1.683V63.38l2.602,5.406h1.246l2.555-5.406v7.416
			H204.201z M190.551,65.141c0,1.885,0,2.866-0.654,3.552c-0.421,0.452-0.997,0.686-1.651,0.686c-0.639,0-1.2-0.233-1.651-0.686
			c-0.717-0.717-0.639-2.103-0.639-3.521c0-1.527-0.016-2.68,0.639-3.365c0.436-0.452,1.028-0.685,1.651-0.685
			c0.638,0,1.215,0.234,1.651,0.685C190.52,62.461,190.551,63.458,190.551,65.141z M192.249,65.25v-0.779
			c0-1.574-0.218-2.804-1.075-3.677c-0.763-0.763-1.776-1.184-2.929-1.184c-1.137,0-2.15,0.421-2.913,1.184
			c-0.935,0.935-1.075,2.119-1.075,3.941v0.592c0,1.714-0.015,3.272,1.075,4.378c0.763,0.779,1.76,1.184,2.913,1.184
			c1.168,0,2.165-0.405,2.929-1.184C192.265,68.584,192.249,67.15,192.249,65.25z M180.921,67.431c0,1.153-0.717,1.854-1.932,1.854
			h-2.524v-3.708h2.524C180.204,65.577,180.921,66.294,180.921,67.431z M182.604,67.431c0-1.994-1.355-3.365-3.505-3.365h-2.633
			v-2.851h5.453v-1.511h-7.135v11.092h4.315C181.264,70.796,182.604,69.425,182.604,67.431z M170.917,65.468
			c0,1.636-0.031,2.571-0.639,3.209c-0.42,0.452-1.012,0.701-1.651,0.701c-0.654,0-1.231-0.249-1.651-0.701
			c-0.514-0.545-0.654-1.215-0.654-3.022v-0.623c0-1.698,0.093-2.617,0.654-3.225c0.405-0.452,0.997-0.685,1.651-0.685
			c0.639,0,1.231,0.234,1.651,0.685c0.514,0.561,0.639,1.324,0.639,3.085V65.468z M172.615,65.25v-0.981
			c0-1.465-0.218-2.602-1.075-3.474c-0.763-0.779-1.776-1.184-2.913-1.184c-1.153,0-2.165,0.405-2.913,1.184
			c-0.904,0.919-1.028,1.963-1.075,3.646h-2.01v-4.736h-1.683v11.092h1.683v-4.845h1.994c0.031,1.729,0.172,2.82,1.091,3.755
			c0.763,0.779,1.76,1.184,2.913,1.184c1.153,0,2.15-0.405,2.913-1.184C172.584,68.63,172.615,67.446,172.615,65.25z
			 M158.358,70.796V59.704h-6.434l-0.171,6.091c-0.078,2.882-0.888,3.49-2.072,3.49h-0.389v1.511h0.841
			c2.119,0,3.194-1.387,3.303-4.783l0.156-4.799h3.084v9.581H158.358z M142.511,67.135h-3.443l1.745-4.923L142.511,67.135z
			 M145.503,70.796l-4.051-11.092h-1.355l-4.066,11.092h1.776l0.779-2.228h4.378l0.779,2.228H145.503z M134.798,70.796V59.704
			h-1.698v4.751h-4.487v-4.751h-1.683v11.092h1.683v-4.845h4.487v4.845H134.798z M117.126,70.796v-1.511h-5.422v-3.334h4.611v-1.496
			h-4.611v-3.241h5.422v-1.511h-7.104v11.092H117.126z M105.377,69.285h-4.191c0.779-2.072,1.2-3.692,1.2-7.525v-0.546h2.991V69.285
			z M108.368,73.444v-4.16h-1.309v-9.581h-6.294v0.67c0,4.565-0.358,6.606-1.309,8.911h-1.106v4.16h1.636v-2.648h6.73v2.648H108.368
			z M97.165,67.665c0-1.293-0.623-2.166-1.698-2.602c0.981-0.467,1.527-1.308,1.527-2.446c0-1.838-1.542-3.007-3.536-3.007
			c-1.402,0-2.54,0.359-3.583,1.277l1.044,1.075c0.717-0.639,1.511-0.872,2.477-0.872c1.09,0,1.916,0.592,1.916,1.636
			c0,1.075-0.654,1.698-1.776,1.698h-1.355v1.402h1.324c1.215,0,1.963,0.623,1.963,1.792c0,1.106-0.935,1.76-2.088,1.76
			c-1.137,0-1.947-0.296-2.789-1.075l-1.106,1.122c1.169,1.137,2.321,1.464,3.926,1.464C95.529,70.889,97.165,69.628,97.165,67.665z
			 M88.532,70.796v-1.511H83.11v-3.334h4.611v-1.496H83.11v-3.241h5.422v-1.511h-7.104v11.092H88.532z M77.561,67.587
			c0,1.044-0.701,1.698-1.823,1.698h-2.633v-3.381h2.633C76.861,65.904,77.561,66.559,77.561,67.587z M77.406,62.804
			c0,0.997-0.686,1.589-1.807,1.589h-2.493v-3.178h2.493C76.72,61.215,77.406,61.807,77.406,62.804z M79.259,67.68
			c0-1.262-0.576-2.056-1.667-2.571c0.981-0.483,1.496-1.293,1.496-2.415c0-1.807-1.325-2.991-3.35-2.991h-4.316v11.092h4.487
			C77.982,70.796,79.259,69.596,79.259,67.68z M59.329,67.135h-3.443l1.745-4.923L59.329,67.135z M62.32,70.796L58.27,59.704h-1.355
			l-4.066,11.092h1.776l0.779-2.228h4.378l0.779,2.228H62.32z M49.528,69.285h-4.191c0.779-2.072,1.199-3.692,1.199-7.525v-0.546
			h2.991V69.285z M52.519,73.444v-4.16H51.21v-9.581h-6.294v0.67c0,4.565-0.358,6.606-1.309,8.911h-1.106v4.16h1.636v-2.648h6.73
			v2.648H52.519z M41.923,61.215v-1.511h-6.824v11.092h1.683v-9.581H41.923z M33.056,70.796v-1.511h-5.422v-3.334h4.611v-1.496
			h-4.611v-3.241h5.422v-1.511h-7.104v11.092H33.056z M24.018,69.581l-1.122-1.137c-0.654,0.639-1.137,0.935-1.963,0.935
			c-0.67,0-1.231-0.218-1.651-0.67c-0.53-0.561-0.654-1.215-0.654-3.116v-0.499c0-1.433,0.016-2.617,0.654-3.303
			c0.42-0.436,0.997-0.67,1.651-0.67c0.826,0,1.309,0.296,1.963,0.935l1.122-1.137c-0.561-0.514-0.919-0.779-1.434-0.997
			c-0.483-0.202-1.013-0.312-1.651-0.312c-1.153,0-2.165,0.421-2.929,1.184c-0.919,0.935-1.075,1.963-1.075,4.004
			c-0.015,0.062-0.015,0.374,0,0.452c0,1.823-0.031,3.35,1.075,4.456c0.763,0.779,1.776,1.184,2.944,1.184
			c0.623,0,1.153-0.109,1.636-0.311C23.098,70.36,23.457,70.095,24.018,69.581z M13.468,67.587c0,1.044-0.701,1.698-1.823,1.698
			H9.013v-3.381h2.633C12.767,65.904,13.468,66.559,13.468,67.587z M13.313,62.804c0,0.997-0.686,1.589-1.807,1.589H9.013v-3.178
			h2.493C12.627,61.215,13.313,61.807,13.313,62.804z M15.166,67.68c0-1.262-0.576-2.056-1.667-2.571
			c0.981-0.483,1.496-1.293,1.496-2.415c0-1.807-1.324-2.991-3.349-2.991H7.33v11.092h4.487
			C13.889,70.796,15.166,69.596,15.166,67.68z"/>
	</g>
</g>
</svg>
