<svg width="105" height="84" viewBox="0 0 105 84" fill="none" xmlns="http://www.w3.org/2000/svg">
    <path d="M70.6122 74.1684C70.5501 75.0533 70.4716 75.937 70.3767 76.8189C70.2776 77.7374 70.1432 78.6517 69.9739 79.5598C69.473 82.129 68.1233 83.7612 65.5733 83.8937H64.8017V80.8429C66.2246 80.878 66.6173 80.3443 66.8758 79.015C67.0472 78.1422 67.1965 76.9865 67.3217 75.7896C67.482 74.2457 67.5963 72.6997 67.6774 71.1557H77.1521V83.8766H73.9909V74.1815L70.6122 74.1684ZM10.4787 71.1487V74.1704H6.82145V83.8786H3.66022V74.1845H0V71.1628L10.4787 71.1487ZM60.5844 77.4901C60.5844 75.4857 59.4402 74.0591 57.3751 74.0591C55.311 74.0591 54.1187 75.4857 54.1187 77.5122C54.1187 79.5387 55.289 80.9643 57.3751 80.9643C59.4612 80.9643 60.5844 79.4915 60.5844 77.4901V77.4901ZM63.7366 77.4901C63.7366 81.3144 61.1766 83.986 57.3671 83.986C53.5566 83.986 50.9575 81.3425 50.9575 77.5122C50.9575 73.6809 53.4894 71.0384 57.3671 71.0384C61.2447 71.0384 63.7366 73.6668 63.7366 77.4901ZM42.7152 75.6321H43.096L46.7772 71.1487H50.8502L45.7111 77.0627L51.2671 83.8786H47.0928L43.0308 78.5284H42.7132V83.8786H39.549V71.1628H42.7132L42.7152 75.6321ZM12.5898 71.1487H17.9875C20.7509 71.1487 22.8871 72.9605 22.8871 75.8107C22.8871 78.6599 20.7259 80.4476 17.9484 80.4476H15.741V83.8887H12.5788L12.5898 71.1487ZM18.0165 74.1704H15.752V77.4159H18.0696C19.1197 77.4159 19.7359 76.8842 19.7359 75.8107C19.7359 74.6941 19.1017 74.1704 18.0165 74.1704V74.1704ZM28.0924 79.1314L32.8598 71.1487H36.1463V83.8796H33.0983V75.89L28.3128 83.8937H25.0414V71.1638H28.0884L28.0924 79.1314ZM86.0005 74.0741C83.9385 74.0741 82.7491 75.5007 82.7491 77.5262C82.7491 79.5527 83.9174 80.9793 86.0005 80.9793C88.0826 80.9793 89.2049 79.5056 89.2049 77.5051C89.2049 75.5007 88.0626 74.0741 86.0005 74.0741V74.0741ZM85.9965 84C82.183 84 79.5879 81.3565 79.5879 77.5262C79.5879 73.6959 82.1299 71.0524 85.9965 71.0524C89.8642 71.0524 92.3661 73.6809 92.3661 77.5051C92.3661 81.3274 89.81 84 85.9965 84V84ZM94.7017 71.1628H100.102C102.866 71.1628 105 72.9756 105 75.8247C105 78.6739 102.837 80.4617 100.066 80.4617H97.8609V83.9027H94.7017V71.1628ZM100.124 74.1845H97.8639V77.4199H100.182C101.229 77.4199 101.848 76.8902 101.848 75.8197C101.848 74.7062 101.211 74.1845 100.124 74.1845Z" fill="#00519e"/>
    <path d="M39.586 27.679L27.1503 40.0966H51.5856L63.913 27.5114L37.0731 0H12.5748L39.586 27.679Z" fill="#00519e"/>
    <path d="M76.2763 64.6505L51.5856 40.0966H76.0208L100.59 64.6505H76.2763Z" fill="#e31231"/>
</svg>
